<?xml version="1.0" encoding="utf-8"?>
<!-- Generator: Adobe Illustrator 16.0.4, SVG Export Plug-In . SVG Version: 6.00 Build 0)  -->
<!DOCTYPE svg PUBLIC "-//W3C//DTD SVG 1.1//EN" "http://www.w3.org/Graphics/SVG/1.1/DTD/svg11.dtd">
<svg version="1.1" id="Layer_1" xmlns="http://www.w3.org/2000/svg" xmlns:xlink="http://www.w3.org/1999/xlink" x="0px" y="0px"
	 width="186px" height="43px" viewBox="0 0 186 43" enable-background="new 0 0 186 43" xml:space="preserve">
<path fill="#FF790E" d="M87,10v17h-3V16.998L80,25h-1.998l-4-8.002L74,16.993V27h-3V10h3v0.508l0.002-0.008l4.75,9.5h0.498L84,10.5
	V10H87z M56.001,10v17H67v-3h-7.999v-4h7v-3h-7v-4h8v-3H56.001z M91,10v17h3V13h7.001v14h3V10H91z M49,17
	c-0.922,0.469-2.188,1-3.5,1c-2.103,0-3.5-0.914-3.5-3v-5h-3v5c0,3.542,2.545,6,6.5,6c1.598,0,2.75-0.578,3.5-1v7h3V10h-3V17z
	 M152.001,17H145v-7h-3v17h3v-7h7.001v7h3V10h-3V17z M173,10v3h5v14h3V13h5v-3H173z M118.001,10.505L118,10.5L111.25,21H111V9.997
	h-3v17h3V26.5l6.75-10.5h0.251v10.996h3v-17h-3V10.505z M167,10l6.5,17H170l-1.5-4h-6l-1.5,4h-3.5l6.5-17H167z M167.541,20l-1.916-6
	h-0.25l-1.916,6H167.541z M137.35,13c0.461,0.986,0.65,2.109,0.65,3v5c0,0.891-0.189,2.014-0.65,3c-0.817,1.75-2.645,3.2-5.85,3.2
	s-5.031-1.45-5.85-3.2c-0.461-0.986-0.65-2.109-0.65-3v-5c0-0.891,0.189-2.014,0.65-3c0.817-1.75,2.645-3.2,5.85-3.2
	S136.531,11.25,137.35,13z M135,16.5c0-0.484-0.031-1.5-0.25-2c-0.551-1.26-1.553-1.7-3.25-1.7s-2.699,0.44-3.25,1.7
	c-0.219,0.5-0.25,1.516-0.25,2v4c0,0.484,0.031,1.5,0.25,2c0.551,1.26,1.553,1.7,3.25,1.7s2.699-0.44,3.25-1.7
	c0.219-0.5,0.25-1.516,0.25-2V16.5z"/>
<path d="M0,0v22.741c0,3.906,0.802,6.872,2.524,9.334c3.388,4.841,9.633,8.192,14.001,9.26L17,41.45l0.474-0.115
	c4.369-1.066,10.615-4.418,14.004-9.26C33.198,29.615,34,26.649,34,22.741V0H0z"/>
<path fill="#FF790E" d="M29.5,4.5v18.241c0,2.981-0.527,5.064-1.709,6.754c-2.697,3.854-7.794,6.417-10.791,7.307
	c-2.997-0.89-8.093-3.454-10.788-7.306C5.028,27.804,4.5,25.721,4.5,22.741V4.5H29.5z M2,2v20.741c0,3.512,0.683,6.071,2.163,8.188
	c3.229,4.613,9.269,7.592,12.837,8.463c3.57-0.871,9.609-3.85,12.839-8.463C31.319,28.812,32,26.253,32,22.741V2H2z"/>
<path fill="#FFFFFF" d="M7.026,23.687c0.122,2.455,0.711,3.628,1.233,4.376c1.808,2.583,5.089,4.618,7.74,5.727V25h-4.5
	C9.672,25,8.2,24.719,7.026,23.687z"/>
<path fill="#FF790E" d="M18,7c0,0,0,8.901,0,9c0,0.59-0.41,1-1,1h-1c-0.59,0-1-0.41-1-1V7H7v11c0,3.085,1.685,5,5,5h4
	c1.172,0,2-0.6,2-0.6v11.389c2.652-1.107,5.934-3.144,7.743-5.728C26.328,27.226,27,25.863,27,22.741V7H18z"/>
</svg>
